<svg width="768" height="883" viewBox="0 0 768 883" fill="none" xmlns="http://www.w3.org/2000/svg">
<g opacity="0.3">
<path d="M236.47 1095.13C-61.8114 1095.13 -99.4093 899.081 -86.0863 800.258C-65.9263 650.732 99.3843 571.828 123.574 526.147C147.767 480.443 123.574 413.997 123.574 413.997C123.574 413.997 296.95 530.3 220.342 650.732C143.737 771.188 280.822 916.561 309.045 829.328C337.27 742.118 313.077 675.649 313.077 675.649C313.077 675.649 413.875 704.719 430.003 858.397C446.13 1012.08 276.787 1095.13 236.47 1095.13Z" fill="#FC0001"/>
<path d="M458.235 384.895C306.635 472.742 361.468 580.104 446.137 663.182C550.596 765.653 591.289 928.996 365.499 999.601C191.2 1054.11 264.701 1103.44 264.701 1103.44C264.701 1103.44 661.341 1190.73 800.949 941.444C921.911 725.472 700.151 497.051 700.151 497.051C700.151 497.051 728.375 663.182 607.418 650.734C503.262 639.998 500.848 539.996 546.938 451.367C607.418 335.078 494.522 252 494.522 252C494.522 252 522.746 347.526 458.235 384.895Z" fill="#FC0001"/>
<path d="M171.961 571.824C-154.628 721.342 -122.374 1028.68 67.129 1099.29C256.632 1169.9 405.811 1053.6 409.845 941.469C413.876 829.336 377.588 758.727 377.588 758.727C377.588 758.727 321.141 949.769 208.247 854.259C95.3525 758.727 171.961 571.824 171.961 571.824Z" fill="#FB6D01"/>
<path d="M519.708 675.662C370.527 617.527 376.691 479.592 411.854 444.115C460.238 395.31 484.927 403.743 507.613 378.71C535.835 347.546 519.708 288.369 519.708 288.369C519.708 288.369 592.286 370.398 531.805 434.785C479.649 490.279 467.294 600.903 519.708 675.662Z" fill="#FB6D01"/>
<path d="M723.673 539.962C933.335 753.857 819.096 1028.67 667.899 1080.59C516.699 1132.5 492.507 1130.44 434.045 1097.2C375.58 1063.98 450.173 924.845 557.019 899.91C663.866 874.996 611.451 850.083 561.053 791.93C510.65 733.777 529.466 621.645 529.466 621.645C529.466 621.645 606.746 709.567 679.324 675.646C748.527 643.291 723.673 539.962 723.673 539.962Z" fill="#FB6D01"/>
<path d="M577.161 702.667C538.859 831.427 736.425 856.35 710.216 956.022C684.007 1055.69 492.492 1080.62 492.492 1080.62C492.492 1080.62 727.182 1127.82 798.918 972.637C859.396 841.795 748.518 779.497 671.911 773.272C581.277 765.897 577.161 702.667 577.161 702.667Z" fill="#EFA204"/>
<path d="M748.531 582.893C885.619 758.018 796.039 870.755 739.123 814.779C682.207 758.826 785.49 681.186 748.531 582.893Z" fill="#EFA204"/>
<path d="M107.444 634.133C-112.295 798.181 -95.4959 966.407 13.3661 1057.77C122.228 1149.14 307.025 1147.06 351.376 1037.01C395.728 926.938 325.168 908.253 192.114 879.176C59.062 850.099 107.444 634.133 107.444 634.133Z" fill="#EFA204"/>
<path d="M480.397 740.045C587.241 825.185 623.528 918.631 583.211 1001.71C542.89 1084.77 365.487 1117.99 393.709 1020.38C421.934 922.795 508.62 904.101 508.62 831.409C508.62 758.739 480.397 740.045 480.397 740.045Z" fill="#EFA204"/>
<path d="M48.9897 710.944C-98.1752 879.156 -26.9438 1067.43 65.7907 1092.36C158.525 1117.29 296.956 1063.99 307.035 1005.84C317.116 947.692 300.988 918.606 300.988 918.606C300.988 918.606 323.166 947.692 246.557 989.22C169.949 1030.75 153.823 1020.36 153.823 1020.36C153.823 1020.36 194.14 962.212 103.422 862.536C12.7029 762.859 48.9897 710.944 48.9897 710.944Z" fill="#FACF67"/>
<path d="M355.416 764.942C417.911 854.228 381.625 945.624 381.625 945.624C381.625 945.624 381.625 910.314 351.384 875.005C321.146 839.695 355.416 764.942 355.416 764.942Z" fill="#FACF67"/>
<path d="M726.354 1012.07C824.411 931.266 794.898 848.018 718.289 810.625C641.685 773.253 635.635 783.627 635.635 783.627C635.635 783.627 696.038 851.122 712.241 883.307C740.466 939.387 722.32 1012.07 651.763 1049.44C581.202 1086.83 675.955 1053.61 726.354 1012.07Z" fill="#FACF67"/>
<path d="M498.549 405.687C421.942 453.443 375.573 484.598 393.716 559.37C416.911 654.928 498.549 650.743 498.549 650.743C498.549 650.743 446.134 598.826 452.18 534.446C458.229 470.067 498.549 405.687 498.549 405.687Z" fill="#FACF67"/>
<path d="M617.486 596.749C679.98 534.456 633.375 508.522 623.533 459.681C616.144 422.991 641.677 384.929 641.677 384.929C641.677 384.929 576.437 451.406 603.374 494.291C647.727 564.905 617.486 596.749 617.486 596.749Z" fill="#FC0001"/>
<path d="M220.34 448.618C236.468 498.465 235.676 524.203 198.836 569.052C124.916 659.053 182.708 719.968 181.364 715.806C180.02 711.667 174.119 627.526 220.34 589.838C284.85 537.223 220.34 448.618 220.34 448.618Z" fill="#FCE8B3"/>
<path d="M260.668 724.098C235.132 779.485 257.979 808.548 257.979 808.548L260.668 724.098Z" fill="#FC0001"/>
<path d="M20.0888 803.028C-32.3245 955.32 -30.9844 1036.99 49.6545 1074.38C130.294 1111.77 152.536 963.983 103.417 927.627C7.99277 857.024 20.0888 803.028 20.0888 803.028Z" fill="#FCE8B3"/>
<path d="M532.155 1104.81C376.253 1135.27 364.155 1088.21 346.683 1053.6C329.214 1018.98 421.542 929.653 524.089 960.831C688.056 1010.68 638.331 863.924 638.331 863.924C638.331 863.924 720.312 891.603 686.714 999.606C656.068 1098.09 562.525 1098.89 532.155 1104.81Z" fill="#FCE8B3"/>
<path d="M482.411 791.959C436.045 856.341 442.095 899.939 462.253 947.702C482.411 995.465 442.095 1034.92 448.141 1034.92C454.191 1034.92 526.763 970.558 494.507 897.867C462.253 825.196 482.411 791.959 482.411 791.959Z" fill="#FB6D01"/>
<path d="M775.415 688.099C835.895 751.785 847.991 812.706 798.265 905.449C804.985 862.541 763.321 830.697 763.321 830.697C763.321 830.697 802.566 796.109 800.952 762.85C799.607 735.167 775.415 688.099 775.415 688.099Z" fill="#FCE8B3"/>
<path d="M750.54 809.266C776.747 739.343 727.692 713.727 690.061 688.804C652.429 663.903 655.117 598.133 655.117 598.133C655.117 598.133 607.408 645.903 635.63 715.804C656.311 767.035 750.54 809.266 750.54 809.266Z" fill="#FACF67"/>
</g>
<g filter="url(#filter0_f_404_940)">
<circle cx="371.5" cy="600.5" r="250.5" fill="#FF0000"/>
</g>
<defs>
<filter id="filter0_f_404_940" x="-229" y="0" width="1201" height="1201" filterUnits="userSpaceOnUse" color-interpolation-filters="sRGB">
<feFlood flood-opacity="0" result="BackgroundImageFix"/>
<feBlend mode="normal" in="SourceGraphic" in2="BackgroundImageFix" result="shape"/>
<feGaussianBlur stdDeviation="175" result="effect1_foregroundBlur_404_940"/>
</filter>
</defs>
</svg>
